<svg xmlns="http://www.w3.org/2000/svg" viewBox="0 0 32 32">
  <!-- Ears -->
  <polygon points="6,14 2,4 11,9" fill="#ff2d78"/>
  <polygon points="26,14 30,4 21,9" fill="#ff2d78"/>
  <polygon points="6.5,13 3.5,6 10,9.5" fill="#ff9ec0"/>
  <polygon points="25.5,13 28.5,6 22,9.5" fill="#ff9ec0"/>
  <!-- Head -->
  <circle cx="16" cy="18" r="12" fill="#1a1a2e" stroke="#ff2d78" stroke-width="0.8"/>
  <!-- Eyes -->
  <ellipse cx="11" cy="16" rx="2.8" ry="3.2" fill="#0a0a14"/>
  <ellipse cx="11.3" cy="16" rx="1.6" ry="2.2" fill="#ffe600"/>
  <ellipse cx="11.6" cy="15" rx="0.5" ry="0.5" fill="white" opacity="0.9"/>
  <ellipse cx="21" cy="16" rx="2.8" ry="3.2" fill="#0a0a14"/>
  <ellipse cx="21.3" cy="16" rx="1.6" ry="2.2" fill="#ffe600"/>
  <ellipse cx="21.6" cy="15" rx="0.5" ry="0.5" fill="white" opacity="0.9"/>
  <!-- Nose -->
  <polygon points="16,19.5 14.8,21.2 17.2,21.2" fill="#ff2d78"/>
  <!-- Mouth -->
  <path d="M 13.5 22 Q 16 24.5 18.5 22" fill="none" stroke="#ff9ec0" stroke-width="0.8" stroke-linecap="round"/>
  <!-- Whiskers -->
  <line x1="4" y1="18" x2="12" y2="19.5" stroke="#8888aa" stroke-width="0.5" opacity="0.6"/>
  <line x1="4" y1="20.5" x2="12" y2="21" stroke="#8888aa" stroke-width="0.5" opacity="0.6"/>
  <line x1="28" y1="18" x2="20" y2="19.5" stroke="#8888aa" stroke-width="0.5" opacity="0.6"/>
  <line x1="28" y1="20.5" x2="20" y2="21" stroke="#8888aa" stroke-width="0.5" opacity="0.6"/>
</svg>
